<svg viewBox="0 0 280 280" fill="none" xmlns="http://www.w3.org/2000/svg" id="Github--Streamline-Unicons" height="280" width="280">
  <desc>
    Github Streamline Icon: https://streamlinehq.com
  </desc>
  <path d="M139.99883333333332 6.185666666666666c-32.578 0.0011666666666666668 -64.09316666666666 11.5955 -88.90466666666666 32.70633333333333C26.281499999999998 60.00283333333333 9.790666666666665 89.25466666666667 4.572166666666667 121.41266666666667c-5.2185 32.15683333333333 1.176 65.12216666666666 18.038999999999998 92.99733333333333 16.861833333333333 27.872833333333332 43.09316666666667 48.83783333333333 73.99933333333334 59.14183333333333 6.859999999999999 1.2005 9.4325 -2.9155 9.4325 -6.5169999999999995 0 -3.2584999999999997 -0.17149999999999999 -14.062999999999999 -0.17149999999999999 -25.5535 -34.4715 6.3455 -43.3895 -8.402333333333333 -46.1335 -16.119833333333332 -3.045 -7.505166666666666 -7.871499999999999 -14.156333333333333 -14.062999999999999 -19.3795 -4.802 -2.5725 -11.662 -8.918 -0.17149999999999999 -9.0895 4.387833333333333 0.47600000000000003 8.594833333333334 2.0031666666666665 12.2675 4.450833333333333 3.6714999999999995 2.447666666666666 6.700166666666667 5.745833333333333 8.827 9.612166666666665 1.876 3.3705 4.3995 6.3385 7.424666666666666 8.7325 3.0251666666666663 2.3939999999999997 6.493666666666666 4.1685 10.206 5.2185 3.712333333333333 1.0511666666666666 7.595 1.3603333333333332 11.426333333333334 0.9088333333333333s7.536666666666666 -1.6543333333333334 10.901333333333334 -3.540833333333333c0.5938333333333333 -6.975499999999999 3.703 -13.497166666666667 8.747666666666667 -18.3505 -30.526999999999997 -3.4299999999999997 -62.425999999999995 -15.263499999999999 -62.425999999999995 -67.74249999999999 -0.1925 -13.634833333333333 4.838166666666667 -26.8275 14.062999999999999 -36.87133333333333 -4.194166666666666 -11.850999999999999 -3.7041666666666666 -24.856999999999996 1.3719999999999999 -36.358 0 0 11.489333333333333 -3.6014999999999997 37.73 14.062999999999999 22.448999999999998 -6.1739999999999995 46.148666666666664 -6.1739999999999995 68.59883333333333 0 26.239499999999996 -17.836 37.73 -14.062999999999999 37.73 -14.062999999999999 5.0761666666666665 11.501 5.567333333333333 24.506999999999998 1.3719999999999999 36.358 9.2505 10.026333333333334 14.288166666666665 23.231833333333334 14.062999999999999 36.87133333333333 0 52.6505 -32.070499999999996 64.3125 -62.5975 67.74249999999999 3.2736666666666667 3.3179999999999996 5.794833333333333 7.303333333333333 7.393166666666667 11.681833333333334 1.5983333333333334 4.380833333333333 2.235333333333333 9.053333333333333 1.8678333333333332 13.700166666666664 0 18.351666666666667 -0.17149999999999999 33.098333333333336 -0.17149999999999999 37.728833333333334 0 3.6014999999999997 2.5725 7.889 9.4325 6.5169999999999995 30.851333333333333 -10.386833333333332 57.00683333333333 -31.40083333333333 73.7975 -59.28883333333333 16.791833333333333 -27.889166666666664 23.124499999999998 -60.83816666666666 17.869833333333332 -92.96466666666666 -5.254666666666667 -32.12533333333333 -21.754833333333334 -61.33866666666666 -46.557 -82.42383333333332C204.04066666666665 17.788166666666665 172.55233333333334 6.203166666666665 139.99883333333332 6.185666666666666Z" fill="#f3f3f3" stroke-width="11.6667"></path>
</svg>