<svg role="img" viewBox="0 0 280 280" xmlns="http://www.w3.org/2000/svg" id="Tryhackme--Streamline-Simple-Icons" height="280" width="280">
  <desc>
    Tryhackme Streamline Icon: https://streamlinehq.com
  </desc>
  <title>TryHackMe</title>
  <path d="M124.89166666666667 0C87.96666666666667 0 57.19 26.658333333333335 50.73833333333333 61.72833333333333a52.79166666666667 52.79166666666667 0 0 0 -47.915 52.5 52.79166666666667 52.79166666666667 0 0 0 52.73333333333333 52.73333333333333h78.87833333333333a7.291666666666666 7.291666666666666 0 1 0 0 -14.583333333333332H55.545a38.185 38.185 0 0 1 -38.15 -38.15A38.185 38.185 0 0 1 76.88333333333333 82.6a7.291666666666666 7.291666666666666 0 0 0 8.166666666666666 -12.075 52.36 52.36 0 0 0 -19.599999999999998 -8.049999999999999 60.934999999999995 60.934999999999995 0 0 1 59.45333333333333 -47.879999999999995 60.91166666666666 60.91166666666666 0 0 1 60.36333333333334 53.31666666666667 52.37166666666666 52.37166666666666 0 0 0 -5.693333333333333 3.558333333333333 7.291666666666666 7.291666666666666 0 1 0 8.528333333333332 11.818333333333332 37.858333333333334 37.858333333333334 0 0 1 22.306666666666665 -7.1866666666666665 38.24333333333333 38.24333333333333 0 0 1 37.36833333333333 30.449999999999996 7.291666666666666 7.291666666666666 0 0 0 14.291666666666668 -2.9283333333333332 52.885 52.885 0 0 0 -51.66 -42.11666666666666 52.96666666666666 52.96666666666666 0 0 0 -11.176666666666666 1.2249999999999999C193.15333333333334 27.159999999999997 162.16666666666666 0 124.89166666666667 0zm60.57333333333333 124.13333333333334a10.791666666666666 10.791666666666666 0 0 0 -5.39 1.26 10.651666666666667 10.651666666666667 0 0 0 -3.6516666666666664 3.383333333333333 14.816666666666666 14.816666666666666 0 0 0 -2.0416666666666665 4.9816666666666665 27.883333333333333 27.883333333333333 0 0 0 -0.63 5.996666666666666c0 2.1116666666666664 0.20999999999999996 4.118333333333333 0.63 6.031666666666666 0.41999999999999993 1.9133333333333333 1.1083333333333334 3.5816666666666666 2.0416666666666665 5.016666666666667a10.488333333333333 10.488333333333333 0 0 0 3.6516666666666664 3.465c1.4816666666666667 0.8516666666666666 3.2783333333333333 1.2833333333333332 5.39 1.2833333333333332 2.0999999999999996 0 3.8966666666666665 -0.43166666666666664 5.366666666666666 -1.2833333333333332a10.465 10.465 0 0 0 3.605 -3.453333333333333c0.9333333333333333 -1.4466666666666665 1.5983333333333334 -3.115 2.018333333333333 -5.028333333333333 0.41999999999999993 -1.9133333333333333 0.63 -3.92 0.63 -6.031666666666666 0 -2.0999999999999996 -0.20999999999999996 -4.1066666666666665 -0.63 -5.996666666666666a14.828333333333331 14.828333333333331 0 0 0 -2.018333333333333 -4.97 10.511666666666667 10.511666666666667 0 0 0 -3.605 -3.3949999999999996 10.698333333333332 10.698333333333332 0 0 0 -5.366666666666666 -1.26zm75.66999999999999 0a10.791666666666666 10.791666666666666 0 0 0 -5.39 1.26 10.651666666666667 10.651666666666667 0 0 0 -3.6516666666666664 3.383333333333333 14.816666666666666 14.816666666666666 0 0 0 -2.0416666666666665 4.9816666666666665 27.883333333333333 27.883333333333333 0 0 0 -0.6183333333333333 5.996666666666666c0 2.1116666666666664 0.19833333333333333 4.118333333333333 0.6183333333333333 6.031666666666666 0.41999999999999993 1.9133333333333333 1.1083333333333334 3.5816666666666666 2.0416666666666665 5.016666666666667a10.488333333333333 10.488333333333333 0 0 0 3.6516666666666664 3.465c1.4816666666666667 0.8516666666666666 3.2783333333333333 1.2833333333333332 5.39 1.2833333333333332 2.0999999999999996 0 3.8966666666666665 -0.43166666666666664 5.366666666666666 -1.2833333333333332a10.465 10.465 0 0 0 3.6166666666666663 -3.453333333333333c0.9099999999999999 -1.4466666666666665 1.5866666666666667 -3.115 2.0066666666666664 -5.028333333333333 0.41999999999999993 -1.9133333333333333 0.63 -3.92 0.63 -6.031666666666666 0 -2.0999999999999996 -0.20999999999999996 -4.1066666666666665 -0.63 -5.996666666666666a14.828333333333331 14.828333333333331 0 0 0 -2.018333333333333 -4.97 10.511666666666667 10.511666666666667 0 0 0 -3.5933333333333333 -3.3949999999999996 10.686666666666667 10.686666666666667 0 0 0 -5.378333333333333 -1.26zm-99.59833333333334 0.7933333333333333 -9.799999999999999 7.21 3.6516666666666664 5.016666666666667 5.553333333333333 -4.293333333333333v21.898333333333333h7.034999999999999v-29.831666666666663zm75.66999999999999 0 -9.811666666666666 7.21 3.663333333333333 5.016666666666667 5.5649999999999995 -4.293333333333333v21.898333333333333h7.034999999999999v-29.831666666666663zm-51.74166666666666 5.191666666666666c0.9333333333333333 0 1.668333333333333 0.32666666666666666 2.2516666666666665 0.98 0.5833333333333334 0.665 1.015 1.4816666666666667 1.33 2.4499999999999997 0.3033333333333333 0.9683333333333334 0.5133333333333333 2.018333333333333 0.63 3.138333333333333a29.644999999999996 29.644999999999996 0 0 1 0 6.218333333333334c-0.11666666666666667 1.1316666666666666 -0.32666666666666666 2.1816666666666666 -0.63 3.15a6.813333333333333 6.813333333333333 0 0 1 -1.33 2.4499999999999997 2.835 2.835 0 0 1 -2.2516666666666665 0.9916666666666667 2.893333333333333 2.893333333333333 0 0 1 -2.275 -1.0033333333333332 6.813333333333333 6.813333333333333 0 0 1 -1.3766666666666665 -2.438333333333333 14.525 14.525 0 0 1 -0.6533333333333333 -3.15 30.85833333333333 30.85833333333333 0 0 1 0 -6.218333333333334c0.11666666666666667 -1.1199999999999999 0.3383333333333333 -2.17 0.6533333333333333 -3.15a6.801666666666666 6.801666666666666 0 0 1 1.3766666666666665 -2.438333333333333 2.9166666666666665 2.9166666666666665 0 0 1 2.275 -0.98zm75.66999999999999 0c0.9333333333333333 0 1.6799999999999997 0.32666666666666666 2.2516666666666665 0.98 0.5833333333333334 0.665 1.015 1.4816666666666667 1.33 2.4499999999999997 0.315 0.9683333333333334 0.5133333333333333 2.018333333333333 0.63 3.138333333333333a29.644999999999996 29.644999999999996 0 0 1 0 6.218333333333334c-0.11666666666666667 1.1316666666666666 -0.315 2.1816666666666666 -0.63 3.15a6.813333333333333 6.813333333333333 0 0 1 -1.33 2.4499999999999997 2.835 2.835 0 0 1 -2.2516666666666665 0.9916666666666667 2.905 2.905 0 0 1 -2.275 -1.0033333333333332 6.778333333333332 6.778333333333332 0 0 1 -1.365 -2.438333333333333 14.525 14.525 0 0 1 -0.6533333333333333 -3.15 30.82333333333333 30.82333333333333 0 0 1 0 -6.218333333333334c0.11666666666666667 -1.1199999999999999 0.32666666666666666 -2.17 0.6533333333333333 -3.15a6.766666666666666 6.766666666666666 0 0 1 1.365 -2.438333333333333 2.9166666666666665 2.9166666666666665 0 0 1 2.275 -0.98zm-25.561666666666664 40.949999999999996a10.85 10.85 0 0 0 -5.401666666666666 1.2716666666666665 10.593333333333334 10.593333333333334 0 0 0 -3.6399999999999997 3.3949999999999996c-0.9333333333333333 1.4233333333333333 -1.6216666666666668 3.0683333333333334 -2.0416666666666665 4.97a27.801666666666666 27.801666666666666 0 0 0 -0.63 5.996666666666666c0 2.0999999999999996 0.20999999999999996 4.118333333333333 0.63 6.02 0.41999999999999993 1.9133333333333333 1.0966666666666667 3.5933333333333333 2.0416666666666665 5.04a10.616666666666667 10.616666666666667 0 0 0 3.6399999999999997 3.453333333333333 10.733333333333333 10.733333333333333 0 0 0 5.401666666666666 1.2833333333333332c2.0999999999999996 0 3.8850000000000002 -0.43166666666666664 5.366666666666666 -1.2833333333333332a10.406666666666666 10.406666666666666 0 0 0 3.5933333333333333 -3.453333333333333 15.4 15.4 0 0 0 2.03 -5.04c0.41999999999999993 -1.9016666666666666 0.63 -3.908333333333333 0.63 -6.02 0 -2.0999999999999996 -0.20999999999999996 -4.1066666666666665 -0.63 -5.996666666666666a14.863333333333333 14.863333333333333 0 0 0 -2.03 -4.97 10.383333333333333 10.383333333333333 0 0 0 -3.605 -3.3949999999999996 10.709999999999999 10.709999999999999 0 0 0 -5.366666666666666 -1.26zm-74.69 0.8166666666666667 -9.811666666666666 7.198333333333333 3.663333333333333 5.016666666666667 5.553333333333333 -4.305v21.909999999999997h7.046666666666666v-29.831666666666663zm24.791666666666664 0 -9.811666666666666 7.198333333333333 3.663333333333333 5.016666666666667 5.5649999999999995 -4.305v21.909999999999997h7.034999999999999v-29.831666666666663zm24.686666666666667 0 -9.799999999999999 7.198333333333333 3.6516666666666664 5.016666666666667 5.5649999999999995 -4.305v21.909999999999997h7.034999999999999v-29.831666666666663zm25.2 5.168333333333333c0.9333333333333333 0 1.6799999999999997 0.32666666666666666 2.263333333333333 0.9916666666666667a7.058333333333333 7.058333333333333 0 0 1 1.33 2.4499999999999997c0.3033333333333333 0.9683333333333334 0.5133333333333333 2.0066666666666664 0.6183333333333333 3.138333333333333a30.78833333333333 30.78833333333333 0 0 1 0 6.206666666666667 14.933333333333334 14.933333333333334 0 0 1 -0.6183333333333333 3.15 6.824999999999999 6.824999999999999 0 0 1 -1.33 2.4499999999999997 2.8466666666666667 2.8466666666666667 0 0 1 -2.2516666666666665 0.9916666666666667 2.9166666666666665 2.9166666666666665 0 0 1 -2.2866666666666666 -0.9916666666666667 6.871666666666666 6.871666666666666 0 0 1 -1.365 -2.4499999999999997 14.525 14.525 0 0 1 -0.6533333333333333 -3.15 30.298333333333332 30.298333333333332 0 0 1 0 -6.206666666666667c0.11666666666666667 -1.1316666666666666 0.32666666666666666 -2.17 0.6533333333333333 -3.15a6.871666666666666 6.871666666666666 0 0 1 1.365 -2.438333333333333 2.905 2.905 0 0 1 2.2866666666666666 -0.9916666666666667zm-78.505 35.85166666666667a7.886666666666667 7.886666666666667 0 0 0 -3.908333333333333 0.9099999999999999 7.711666666666667 7.711666666666667 0 0 0 -2.6483333333333334 2.4616666666666664 10.616666666666667 10.616666666666667 0 0 0 -1.4816666666666667 3.6166666666666663c-0.315 1.3766666666666665 -0.4666666666666667 2.8233333333333333 -0.4666666666666667 4.351666666666667s0.15166666666666664 2.9866666666666664 0.4666666666666667 4.375a10.85 10.85 0 0 0 1.4816666666666667 3.6516666666666664 7.583333333333333 7.583333333333333 0 0 0 2.6483333333333334 2.5083333333333333c1.0733333333333333 0.6183333333333333 2.38 0.9333333333333333 3.908333333333333 0.9333333333333333a7.641666666666667 7.641666666666667 0 0 0 3.8966666666666665 -0.9333333333333333 7.583333333333333 7.583333333333333 0 0 0 2.625 -2.5083333333333333c0.665 -1.0499999999999998 1.1666666666666667 -2.263333333333333 1.4583333333333333 -3.6516666666666664a20.416666666666664 20.416666666666664 0 0 0 0.4666666666666667 -4.375c0 -1.5166666666666666 -0.16333333333333333 -2.975 -0.4666666666666667 -4.351666666666667a10.861666666666666 10.861666666666666 0 0 0 -1.4583333333333333 -3.6166666666666663 7.676666666666667 7.676666666666667 0 0 0 -2.625 -2.4499999999999997 7.781666666666666 7.781666666666666 0 0 0 -3.8966666666666665 -0.9333333333333333zm36.00333333333333 0a7.875 7.875 0 0 0 -3.92 0.9099999999999999 7.711666666666667 7.711666666666667 0 0 0 -2.6366666666666667 2.4616666666666664 10.581666666666667 10.581666666666667 0 0 0 -1.4816666666666667 3.6166666666666663 19.716666666666665 19.716666666666665 0 0 0 -0.4666666666666667 4.351666666666667c0 1.5283333333333333 0.15166666666666664 2.9866666666666664 0.4666666666666667 4.375a10.826666666666666 10.826666666666666 0 0 0 1.4816666666666667 3.6516666666666664c0.6766666666666666 1.0499999999999998 1.5633333333333332 1.89 2.6366666666666667 2.5083333333333333 1.085 0.6183333333333333 2.3916666666666666 0.9333333333333333 3.92 0.9333333333333333a7.641666666666667 7.641666666666667 0 0 0 3.8966666666666665 -0.9333333333333333 7.583333333333333 7.583333333333333 0 0 0 2.6133333333333333 -2.5083333333333333c0.6766666666666666 -1.0499999999999998 1.1666666666666667 -2.263333333333333 1.47 -3.6516666666666664a20.439999999999998 20.439999999999998 0 0 0 0 -8.726666666666667 10.966666666666665 10.966666666666665 0 0 0 -1.47 -3.6166666666666663 7.665 7.665 0 0 0 -2.6133333333333333 -2.4499999999999997 7.781666666666666 7.781666666666666 0 0 0 -3.8966666666666665 -0.9333333333333333zm59.59333333333333 0a7.875 7.875 0 0 0 -3.92 0.9099999999999999 7.711666666666667 7.711666666666667 0 0 0 -2.6366666666666667 2.4616666666666664 10.616666666666667 10.616666666666667 0 0 0 -1.4816666666666667 3.6166666666666663c-0.315 1.3766666666666665 -0.4666666666666667 2.8233333333333333 -0.4666666666666667 4.351666666666667s0.15166666666666664 2.9866666666666664 0.4666666666666667 4.375a10.861666666666666 10.861666666666666 0 0 0 1.4816666666666667 3.6516666666666664c0.6766666666666666 1.0499999999999998 1.5633333333333332 1.89 2.6366666666666667 2.5083333333333333 1.085 0.6183333333333333 2.3916666666666666 0.9333333333333333 3.92 0.9333333333333333 1.5166666666666666 0 2.835 -0.315 3.8966666666666665 -0.9333333333333333a7.583333333333333 7.583333333333333 0 0 0 2.6133333333333333 -2.5083333333333333c0.6766666666666666 -1.0499999999999998 1.1666666666666667 -2.263333333333333 1.47 -3.6516666666666664a20.416666666666664 20.416666666666664 0 0 0 0.4666666666666667 -4.375c0 -1.5166666666666666 -0.16333333333333333 -2.975 -0.4666666666666667 -4.351666666666667a11.001666666666665 11.001666666666665 0 0 0 -1.47 -3.6166666666666663 7.665 7.665 0 0 0 -2.6133333333333333 -2.4499999999999997 7.793333333333333 7.793333333333333 0 0 0 -3.8966666666666665 -0.9333333333333333zm-77.67666666666666 0.5833333333333334 -7.116666666666666 5.226666666666667 2.6483333333333334 3.628333333333333 4.036666666666666 -3.1033333333333335v15.89h5.109999999999999v-21.653333333333332zm35.79333333333333 0 -7.116666666666666 5.226666666666667 2.6483333333333334 3.628333333333333 4.036666666666666 -3.1033333333333335v15.89h5.109999999999999v-21.653333333333332zm59.59333333333333 0 -7.128333333333333 5.226666666666667 2.66 3.628333333333333 4.036666666666666 -3.1033333333333335v15.89h5.109999999999999v-21.653333333333332zm-113.30666666666666 3.7566666666666664c0.6766666666666666 0 1.2249999999999999 0.23333333333333334 1.6333333333333333 0.7233333333333333a4.911666666666666 4.911666666666666 0 0 1 0.9683333333333334 1.7616666666666665 11.2 11.2 0 0 1 0.4666666666666667 2.2866666666666666 22.54 22.54 0 0 1 0 4.503333333333333 11.129999999999999 11.129999999999999 0 0 1 -0.4666666666666667 2.2983333333333333 4.911666666666666 4.911666666666666 0 0 1 -0.9683333333333334 1.7733333333333332 2.0533333333333332 2.0533333333333332 0 0 1 -1.6333333333333333 0.7116666666666667 2.0999999999999996 2.0999999999999996 0 0 1 -1.6449999999999998 -0.7 4.9816666666666665 4.9816666666666665 0 0 1 -0.9916666666666667 -1.785 10.348333333333333 10.348333333333333 0 0 1 -0.47833333333333333 -2.2983333333333333 22.866666666666664 22.866666666666664 0 0 1 0 -4.503333333333333 10.418333333333333 10.418333333333333 0 0 1 0.4666666666666667 -2.2866666666666666 4.8999999999999995 4.8999999999999995 0 0 1 1.0033333333333332 -1.7616666666666665 2.1116666666666664 2.1116666666666664 0 0 1 1.6449999999999998 -0.7233333333333333zm36.00333333333333 0c0.6766666666666666 0 1.2133333333333332 0.23333333333333334 1.6333333333333333 0.7233333333333333a4.911666666666666 4.911666666666666 0 0 1 0.9566666666666667 1.7616666666666665 10.966666666666665 10.966666666666665 0 0 1 0.4666666666666667 2.2866666666666666 22.236666666666665 22.236666666666665 0 0 1 0 4.503333333333333 10.85 10.85 0 0 1 -0.4666666666666667 2.2983333333333333 4.911666666666666 4.911666666666666 0 0 1 -0.9566666666666667 1.7733333333333332 2.0533333333333332 2.0533333333333332 0 0 1 -1.6333333333333333 0.7116666666666667 2.0999999999999996 2.0999999999999996 0 0 1 -1.6449999999999998 -0.7 4.8999999999999995 4.8999999999999995 0 0 1 -1.0033333333333332 -1.785 9.87 9.87 0 0 1 -0.4666666666666667 -2.2983333333333333 22.925 22.925 0 0 1 -0.12833333333333333 -2.275c0 -0.665 0.04666666666666666 -1.4116666666666666 0.11666666666666667 -2.228333333333333a9.905 9.905 0 0 1 0.47833333333333333 -2.2866666666666666 4.8999999999999995 4.8999999999999995 0 0 1 1.0033333333333332 -1.7616666666666665 2.123333333333333 2.123333333333333 0 0 1 1.6449999999999998 -0.7233333333333333zm59.59333333333333 0c0.6766666666666666 0 1.2133333333333332 0.23333333333333334 1.6333333333333333 0.7233333333333333a4.911666666666666 4.911666666666666 0 0 1 0.9566666666666667 1.7616666666666665 10.733333333333333 10.733333333333333 0 0 1 0.4666666666666667 2.2866666666666666 22.901666666666667 22.901666666666667 0 0 1 0 4.503333333333333 11.001666666666665 11.001666666666665 0 0 1 -0.4666666666666667 2.2983333333333333 4.911666666666666 4.911666666666666 0 0 1 -0.9566666666666667 1.7733333333333332 2.065 2.065 0 0 1 -1.6333333333333333 0.7116666666666667 2.0999999999999996 2.0999999999999996 0 0 1 -1.6566666666666665 -0.7 5.098333333333333 5.098333333333333 0 0 1 -0.9916666666666667 -1.785 11.083333333333332 11.083333333333332 0 0 1 -0.4666666666666667 -2.2983333333333333 22.925 22.925 0 0 1 -0.12833333333333333 -2.275c0 -0.665 0.04666666666666666 -1.4116666666666666 0.11666666666666667 -2.228333333333333a11.188333333333333 11.188333333333333 0 0 1 0.4666666666666667 -2.2866666666666666 5.4833333333333325 5.4833333333333325 0 0 1 1.0033333333333332 -1.7616666666666665 2.1116666666666664 2.1116666666666664 0 0 1 1.6566666666666665 -0.7233333333333333zm-19.646666666666665 21.163333333333334a7.875 7.875 0 0 0 -3.92 0.9216666666666666 7.7 7.7 0 0 0 -2.6483333333333334 2.4499999999999997 10.616666666666667 10.616666666666667 0 0 0 -1.4816666666666667 3.6166666666666663 20.195 20.195 0 0 0 0 8.726666666666667 10.954999999999998 10.954999999999998 0 0 0 1.4816666666666667 3.663333333333333c0.6883333333333332 1.0499999999999998 1.5633333333333332 1.89 2.6483333333333334 2.5083333333333333 1.085 0.6183333333333333 2.3916666666666666 0.9333333333333333 3.92 0.9333333333333333a7.7 7.7 0 0 0 3.8966666666666665 -0.9333333333333333 7.56 7.56 0 0 0 2.6133333333333333 -2.5083333333333333c0.6766666666666666 -1.0499999999999998 1.1666666666666667 -2.275 1.47 -3.663333333333333a20.265 20.265 0 0 0 -0.011666666666666665 -8.715 10.826666666666666 10.826666666666666 0 0 0 -1.4583333333333333 -3.6166666666666663 7.583333333333333 7.583333333333333 0 0 0 -2.6133333333333333 -2.4616666666666664 7.793333333333333 7.793333333333333 0 0 0 -3.8966666666666665 -0.9216666666666666zm35.735 0a7.886666666666667 7.886666666666667 0 0 0 -3.92 0.9216666666666666 7.746666666666667 7.746666666666667 0 0 0 -2.6483333333333334 2.4499999999999997 10.57 10.57 0 0 0 -1.4816666666666667 3.6166666666666663 20.299999999999997 20.299999999999997 0 0 0 0 8.726666666666667 10.92 10.92 0 0 0 1.4816666666666667 3.663333333333333 7.7 7.7 0 0 0 2.6483333333333334 2.5083333333333333c1.0733333333333333 0.6183333333333333 2.38 0.9333333333333333 3.92 0.9333333333333333a7.63 7.63 0 0 0 3.8966666666666665 -0.9333333333333333 7.56 7.56 0 0 0 2.6016666666666666 -2.5083333333333333c0.6766666666666666 -1.0499999999999998 1.1666666666666667 -2.275 1.47 -3.663333333333333a20.299999999999997 20.299999999999997 0 0 0 0 -8.715 10.826666666666666 10.826666666666666 0 0 0 -1.47 -3.6166666666666663 7.583333333333333 7.583333333333333 0 0 0 -2.6016666666666666 -2.4616666666666664 7.7700000000000005 7.7700000000000005 0 0 0 -3.8966666666666665 -0.9216666666666666zm-18.025 0.5833333333333334 -7.128333333333333 5.226666666666667 2.66 3.6399999999999997 4.036666666666666 -3.115v15.901666666666666h5.109999999999999v-21.653333333333332zm-17.71 3.768333333333333c0.665 0 1.2133333333333332 0.23333333333333334 1.6333333333333333 0.7116666666666667a4.8999999999999995 4.8999999999999995 0 0 1 0.9566666666666667 1.7733333333333332 10.616666666666667 10.616666666666667 0 0 1 0.4666666666666667 2.275 22.936666666666664 22.936666666666664 0 0 1 0 4.515 11.094999999999999 11.094999999999999 0 0 1 -0.4666666666666667 2.2983333333333333 4.911666666666666 4.911666666666666 0 0 1 -0.9566666666666667 1.7733333333333332 2.065 2.065 0 0 1 -1.6333333333333333 0.7 2.0999999999999996 2.0999999999999996 0 0 1 -1.6566666666666665 -0.7 4.993333333333333 4.993333333333333 0 0 1 -0.9916666666666667 -1.7733333333333332 10.663333333333334 10.663333333333334 0 0 1 -0.4666666666666667 -2.2983333333333333 22.866666666666664 22.866666666666664 0 0 1 -0.12833333333333333 -2.275c0 -0.6766666666666666 0.034999999999999996 -1.4233333333333333 0.11666666666666667 -2.2399999999999998a10.768333333333333 10.768333333333333 0 0 1 0.47833333333333333 -2.275c0.23333333333333334 -0.7 0.5599999999999999 -1.2833333333333332 0.9916666666666667 -1.7733333333333332a2.1116666666666664 2.1116666666666664 0 0 1 1.6566666666666665 -0.7116666666666667zm35.735 0c0.665 0 1.2133333333333332 0.23333333333333334 1.6333333333333333 0.7116666666666667a4.8999999999999995 4.8999999999999995 0 0 1 0.9566666666666667 1.7733333333333332 10.966666666666665 10.966666666666665 0 0 1 0.4666666666666667 2.275 22.28333333333333 22.28333333333333 0 0 1 0 4.515 10.85 10.85 0 0 1 -0.4666666666666667 2.2983333333333333 4.923333333333333 4.923333333333333 0 0 1 -0.9683333333333334 1.7733333333333332 2.0416666666666665 2.0416666666666665 0 0 1 -1.6333333333333333 0.7 2.0999999999999996 2.0999999999999996 0 0 1 -1.6449999999999998 -0.7 4.935 4.935 0 0 1 -0.9916666666666667 -1.7733333333333332 10.581666666666667 10.581666666666667 0 0 1 -0.4666666666666667 -2.2983333333333333 22.75 22.75 0 0 1 0 -4.515 10.675 10.675 0 0 1 0.4666666666666667 -2.275c0.23333333333333334 -0.7 0.5599999999999999 -1.2833333333333332 0.9916666666666667 -1.7733333333333332a2.123333333333333 2.123333333333333 0 0 1 1.6566666666666665 -0.7116666666666667zm-113.31833333333331 2.158333333333333a5.425 5.425 0 0 0 -2.7066666666666666 0.6416666666666666 5.32 5.32 0 0 0 -1.8316666666666666 1.7033333333333331 7.3149999999999995 7.3149999999999995 0 0 0 -1.0383333333333333 2.5083333333333333 13.626666666666665 13.626666666666665 0 0 0 -0.315 3.0216666666666665c0 1.0499999999999998 0.10499999999999998 2.065 0.315 3.033333333333333a7.56 7.56 0 0 0 1.0383333333333333 2.52c0.4666666666666667 0.735 1.085 1.3066666666666666 1.8316666666666666 1.738333333333333a5.3549999999999995 5.3549999999999995 0 0 0 2.7066666666666666 0.6533333333333333c1.0499999999999998 0 1.96 -0.23333333333333334 2.695 -0.6533333333333333a5.25 5.25 0 0 0 1.8199999999999998 -1.738333333333333 7.816666666666666 7.816666666666666 0 0 0 1.015 -2.5316666666666667 14.209999999999999 14.209999999999999 0 0 0 0 -6.043333333333333 7.548333333333333 7.548333333333333 0 0 0 -1.015 -2.5083333333333333 5.226666666666667 5.226666666666667 0 0 0 -1.8199999999999998 -1.7033333333333331 5.343333333333334 5.343333333333334 0 0 0 -2.683333333333333 -0.6416666666666666zm12.273333333333333 0.4083333333333333 -4.935 3.6166666666666663 1.8433333333333333 2.5316666666666667 2.8 -2.158333333333333v11.013333333333332h3.5349999999999997v-15.003333333333332zm-12.273333333333333 2.6133333333333333c0.4666666666666667 0 0.8516666666666666 0.16333333333333333 1.1316666666666666 0.49a3.313333333333333 3.313333333333333 0 0 1 0.665 1.2249999999999999 8.049999999999999 8.049999999999999 0 0 1 0.32666666666666666 1.5866666666666667c0.04666666666666666 0.5716666666666667 0.08166666666666667 1.0733333333333333 0.08166666666666667 1.5516666666666667 0 0.4666666666666667 -0.034999999999999996 1.0033333333333332 -0.08166666666666667 1.575a7.98 7.98 0 0 1 -0.32666666666666666 1.5866666666666667 3.3249999999999997 3.3249999999999997 0 0 1 -0.665 1.2249999999999999 1.4349999999999998 1.4349999999999998 0 0 1 -1.1316666666666666 0.5016666666666666 1.4583333333333333 1.4583333333333333 0 0 1 -1.1433333333333333 -0.5016666666666666 3.476666666666666 3.476666666666666 0 0 1 -0.6883333333333332 -1.2249999999999999 7.14 7.14 0 0 1 -0.32666666666666666 -1.5866666666666667 16.216666666666665 16.216666666666665 0 0 1 0 -3.1266666666666665 7.2333333333333325 7.2333333333333325 0 0 1 0.32666666666666666 -1.5866666666666667 3.465 3.465 0 0 1 0.7 -1.2249999999999999 1.4583333333333333 1.4583333333333333 0 0 1 1.1316666666666666 -0.49zm44.041666666666664 16.263333333333332a5.401666666666666 5.401666666666666 0 0 0 -2.7066666666666666 0.63 5.273333333333333 5.273333333333333 0 0 0 -1.8316666666666666 1.7033333333333331 7.244999999999999 7.244999999999999 0 0 0 -1.0266666666666666 2.4966666666666666 13.883333333333333 13.883333333333333 0 0 0 0 6.055 7.4783333333333335 7.4783333333333335 0 0 0 1.0266666666666666 2.5316666666666667 5.366666666666666 5.366666666666666 0 0 0 1.8316666666666666 1.7499999999999998 5.343333333333334 5.343333333333334 0 0 0 2.7066666666666666 0.63 5.296666666666667 5.296666666666667 0 0 0 2.7066666666666666 -0.6416666666666666 5.25 5.25 0 0 0 1.8083333333333331 -1.738333333333333 7.746666666666667 7.746666666666667 0 0 0 1.015 -2.5316666666666667 13.871666666666666 13.871666666666666 0 0 0 0 -6.055 7.49 7.49 0 0 0 -1.015 -2.4966666666666666 5.203333333333333 5.203333333333333 0 0 0 -1.8083333333333331 -1.7033333333333331 5.3549999999999995 5.3549999999999995 0 0 0 -2.7066666666666666 -0.63zm12.273333333333333 0.39666666666666667 -4.935 3.6166666666666663 1.8433333333333333 2.52 2.8 -2.158333333333333v11.024999999999999h3.5349999999999997V264.59999999999997zm-12.273333333333333 2.6016666666666666c0.4666666666666667 0 0.8516666666666666 0.16333333333333333 1.1433333333333333 0.5016666666666666a3.4999999999999996 3.4999999999999996 0 0 1 0.665 1.2249999999999999 7.501666666666666 7.501666666666666 0 0 1 0.315 1.575 15.283333333333333 15.283333333333333 0 0 1 0 3.1266666666666665 7.63 7.63 0 0 1 -0.315 1.5983333333333334 3.5816666666666666 3.5816666666666666 0 0 1 -0.665 1.2249999999999999 1.4466666666666665 1.4466666666666665 0 0 1 -1.1433333333333333 0.49 1.4583333333333333 1.4583333333333333 0 0 1 -1.1433333333333333 -0.49 3.418333333333333 3.418333333333333 0 0 1 -0.6883333333333332 -1.2249999999999999 7.21 7.21 0 0 1 -0.32666666666666666 -1.5983333333333334 15.913333333333334 15.913333333333334 0 0 1 0 -3.1266666666666665 7.14 7.14 0 0 1 0.32666666666666666 -1.575 3.3483333333333327 3.3483333333333327 0 0 1 0.7 -1.2249999999999999 1.4349999999999998 1.4349999999999998 0 0 1 1.1316666666666666 -0.5016666666666666z" fill="#ff0000" stroke-width="11.6667"></path>
</svg>